# xmcd CD database file
#
# Track frame offsets:
#	150
#	25277
#	51825
#	81837
#	128835
#	173117
#	205602
#	244252
#	273022
#	311889
#
# Disc length: 4392 seconds
#
# Revision: 0
# Processed by: cddbd v1.5.1PL0 Copyright (c) Steve Scherf et al.
# Submitted via: CDex 1.50
#
DISCID=8411260a
DTITLE=Varios - Audio CD personalizado
DYEAR=2001
DGENRE=Salsa
TTITLE0=CD n1, Pista 1
TTITLE1=CD n1, Pista 2
TTITLE2=CD n1, Pista 3
TTITLE3=CD n1, Pista 4
TTITLE4=CD n1, Pista 5
TTITLE5=CD n2, Pista 1
TTITLE6=CD n2, Pista 2
TTITLE7=CD n2, Pista 3
TTITLE8=CD n2, Pista 5
TTITLE9=CD n2, Pista 6
EXTD=YEAR: 2001
EXTT0=
EXTT1=
EXTT2=
EXTT3=
EXTT4=
EXTT5=
EXTT6=
EXTT7=
EXTT8=
EXTT9=
PLAYORDER=
